<svg width="256" height="256" xmlns:xlink="http://www.w3.org/1999/xlink" xmlns="http://www.w3.org/2000/svg"><defs><pattern xlink:href="#prefix__a" id="prefix__b" patternTransform="matrix(10 0 0 10 .022 -.629)"/><pattern patternUnits="userSpaceOnUse" width="10" height="10" patternTransform="scale(10)" id="prefix__a"><circle cx="2.567" cy=".81" r=".15" fill="#fff"/><circle cx="3.048" cy="2.33" r=".15" fill="#fff"/><circle cx="4.418" cy="2.415" r=".15" fill="#fff"/><circle cx="1.844" cy="3.029" r=".15" fill="#fff"/><circle cx="6.08" cy="1.363" r=".15" fill="#fff"/><circle cx="5.819" cy="4.413" r=".15" fill="#fff"/><circle cx="4.305" cy="4.048" r=".15" fill="#fff"/><circle cx="5.541" cy="3.045" r=".15" fill="#fff"/><circle cx="4.785" cy="5.527" r=".15" fill="#fff"/><circle cx="2.667" cy="5.184" r=".15" fill="#fff"/><circle cx="7.965" cy="1.448" r=".15" fill="#fff"/><circle cx="7.047" cy="5.049" r=".15" fill="#fff"/><circle cx="4.34" cy=".895" r=".15" fill="#fff"/><circle cx="7.125" cy=".34" r=".15" fill="#fff"/><circle cx="9.55" cy="1.049" r=".15" fill="#fff"/><circle cx="7.006" cy="2.689" r=".15" fill="#fff"/><circle cx="8.909" cy="2.689" r=".15" fill="#fff"/><circle cx="9.315" cy="4.407" r=".15" fill="#fff"/><circle cx="7.82" cy="3.87" r=".15" fill="#fff"/><circle cx="8.27" cy="5.948" r=".15" fill="#fff"/><circle cx="7.973" cy="7.428" r=".15" fill="#fff"/><circle cx="9.342" cy="8.072" r=".15" fill="#fff"/><circle cx="8.206" cy="9.315" r=".15" fill="#fff"/><circle cx="9.682" cy="9.475" r=".15" fill="#fff"/><circle cx="9.688" cy="6.186" r=".15" fill="#fff"/><circle cx="3.379" cy="6.296" r=".15" fill="#fff"/><circle cx="2.871" cy="8.204" r=".15" fill="#fff"/><circle cx="4.59" cy="8.719" r=".15" fill="#fff"/><circle cx="3.181" cy="9.671" r=".15" fill="#fff"/><circle cx="5.734" cy="7.315" r=".15" fill="#fff"/><circle cx="6.707" cy="6.513" r=".15" fill="#fff"/><circle cx="5.73" cy="9.67" r=".15" fill="#fff"/><circle cx="6.535" cy="8.373" r=".15" fill="#fff"/><circle cx="4.37" cy="7.154" r=".15" fill="#fff"/><circle cx=".622" cy="7.25" r=".15" fill="#fff"/><circle cx=".831" cy="5.679" r=".15" fill="#fff"/><circle cx="1.257" cy="8.519" r=".15" fill="#fff"/><circle cx="1.989" cy="6.877" r=".15" fill="#fff"/><circle cx=".374" cy="3.181" r=".15" fill="#fff"/><circle cx="1.166" cy="1.664" r=".15" fill="#fff"/><circle cx="1.151" cy=".093" r=".15" fill="#fff"/><circle cx="1.151" cy="10.093" r=".15" fill="#fff"/><circle cx="1.302" cy="4.451" r=".15" fill="#fff"/><circle cx="3.047" cy="3.763" r=".15" fill="#fff"/></pattern></defs><rect width="245" height="245" x="5" y="5" ry="20" fill="#3d3846"/><path d="M180.762 172.942c21.312-20.533 24.537-43.807 9.708-69.871 2.099 18.161-3.462 31.061-16.625 38.708-7.512 4.366-16.024 4.215-25.444 4.048-15.36-.253-33.347-.353-52.93 18.514-21.313 20.533-24.538 43.807-9.709 69.872-2.099-18.162 3.462-31.062 16.625-38.71 7.512-4.364 16.024-4.214 25.444-4.047 15.36.253 33.133.559 52.93-18.514zM161.4 84.322c21.313-20.533 24.537-43.807 9.708-69.871 2.1 18.161-3.462 31.061-16.625 38.708-7.512 4.366-16.024 4.215-25.443 4.048-15.361-.253-33.133-.559-52.931 18.514-21.313 20.533-24.538 43.807-9.709 69.872-2.099-18.162 3.463-31.062 16.626-38.71 7.511-4.365 16.024-4.214 25.443-4.047 15.36.253 33.133.559 52.93-18.514z" fill="#094bac"/><path d="M164 186c26.429-13.317 36.387-34.598 29.924-63.882-3.362 17.971-12.488 28.651-27.323 32.067-8.466 1.95-16.554-.708-25.503-3.652-14.6-4.78-31.753-10.192-56.038 2.045-26.429 13.317-36.387 34.598-29.923 63.881 3.362-17.97 12.487-28.65 27.322-32.066 8.466-1.95 16.554.708 25.503 3.652 14.6 4.78 31.488 10.325 56.038-2.045zm7.692-90.384c26.43-13.317 36.388-34.598 29.924-63.881-3.362 17.97-12.487 28.65-27.322 32.067-8.467 1.95-16.554-.71-25.503-3.653-14.6-4.78-31.488-10.325-56.038 2.045-26.43 13.317-36.388 34.599-29.924 63.882 3.362-17.971 12.487-28.651 27.322-32.067 8.467-1.95 16.554.709 25.504 3.652 14.6 4.781 31.487 10.326 56.037-2.045z" fill="#0b5cd5"/><path d="M145.114 194.341c29.012-5.84 44.253-23.722 45.778-53.671-8.003 16.438-19.631 24.319-34.841 23.682-8.681-.362-15.775-5.069-23.625-10.278-12.812-8.478-27.918-18.24-54.577-12.874-29.013 5.84-44.254 23.722-45.779 53.671 8.003-16.438 19.632-24.319 34.842-23.682 8.68.362 15.774 5.069 23.624 10.278 12.812 8.478 27.627 18.298 54.578 12.874zm31.362-85.116c29.013-5.84 44.254-23.722 45.779-53.671-8.003 16.438-19.632 24.319-34.841 23.682-8.681-.362-15.775-5.069-23.625-10.278-12.812-8.478-27.627-18.299-54.577-12.874-29.013 5.84-44.254 23.722-45.779 53.671 8.003-16.438 19.632-24.319 34.841-23.683 8.681.363 15.775 5.07 23.625 10.279 12.812 8.478 27.627 18.298 54.577 12.874z" fill="#3485fd"/><path d="M145.022 194.371c29.013-5.84 44.253-23.722 45.778-53.671-8.002 16.438-19.63 24.319-34.84 23.683-8.681-.363-15.775-5.07-23.625-10.279-12.812-8.478-27.919-18.24-54.578-12.874-29.012 5.84-44.253 23.722-45.778 53.671 8.003-16.438 19.631-24.319 34.841-23.682 8.68.362 15.775 5.069 23.625 10.278 12.811 8.478 27.627 18.299 54.577 12.874zm31.363-85.116c29.012-5.84 44.253-23.722 45.778-53.671-8.003 16.438-19.631 24.319-34.84 23.682-8.682-.362-15.776-5.069-23.625-10.278-12.812-8.478-27.628-18.298-54.578-12.874-29.012 5.84-44.253 23.722-45.778 53.671 8.003-16.438 19.631-24.319 34.841-23.682 8.68.362 15.775 5.069 23.625 10.278 12.811 8.478 27.627 18.299 54.577 12.874z" fill="url(#prefix__b)"/></svg>